<?xml version="1.0" encoding="utf-8"?>
<!-- Generator: Adobe Illustrator 25.3.1, SVG Export Plug-In . SVG Version: 6.00 Build 0)  -->
<svg version="1.1" id="Layer_1" xmlns="http://www.w3.org/2000/svg" xlink="http://www.w3.org/1999/xlink" x="0px" y="0px" viewBox="0 0 792 612" style="enable-background:new 0 0 792 612;" space="preserve" class="" >
<style type="text/css">
	.st0{fill:#0445A5;}
	.st1{fill:#FFB800;}
	.st2{fill:#FFFFFF;}
</style>
<rect class="st0" width="792" height="612"/>
<g>
	<circle class="st1" cx="336.7" cy="255.1" r="30.2"/>
	<path class="st2" d="M163.6,292.1h-57.1v94.1h26.9v-73.9h23.5c5.6,0,10.1,4.5,10.1,10.1v0h0l0,63.9h26.9v-63.9
		C193.9,305.6,180.3,292.1,163.6,292.1z"/>
	<path class="st2" d="M459.4,366h-17.6v0v0c-5.2-0.4-9.3-4.7-9.3-10.1c0,0,0,0,0,0h0v-43.7h26.9v-20.2h-26.9v-33.6h-26.9v33.6h-11.8
		l-15.1,20.2h26.9V356c0,16.7,13.5,30.2,30.2,30.2c0,0,0,0,0,0h23.5V375c0,0,0,0,0,0L459.4,366L459.4,366z"/>
	<polygon class="st2" points="387.2,292.1 356.9,292.1 336.8,319 316.6,292.1 286.3,292.1 321.6,339.1 286.3,386.2 316.6,386.2 
		336.8,359.3 356.9,386.2 387.2,386.2 351.9,339.1 	"/>
	<polygon class="st2" points="573.6,292.1 550.1,352 526.6,292.1 499.7,292.1 536.7,386.2 563.5,386.2 600.5,292.1 	"/>
	<g>
		<rect x="466.1" y="292.1" class="st2" width="26.9" height="94.1"/>
		<rect x="466.1" y="258.5" class="st2" width="26.9" height="26.9"/>
	</g>
	<path class="st2" d="M247.6,366c-8.5,0-15.7-7-18.7-16.8h64.7c0.7-3.2,1.1-6.6,1.1-10.1c0-26-21.1-47.1-47.1-47.1
		s-47.1,21.1-47.1,47.1c0,26,21.1,47.1,47.1,47.1c0,0,0,0,0,0h31.9l15.1-20.2H247.6z M247.6,312.3c8.5,0,15.7,7,18.7,16.8h-37.4
		C231.9,319.2,239.2,312.3,247.6,312.3z"/>
	<path class="st2" d="M656.2,292.1h-49l-7.9,20.2h50.2c5.6,0,10.1,4.5,10.1,10.1v0h0l0,6.7h-40.3v0.1c-15,0.9-26.9,13.3-26.9,28.5
		s11.9,27.6,26.9,28.5v0.1h67.2v-63.9C686.4,305.6,672.9,292.1,656.2,292.1z M626,349.4c0.5-0.1,1-0.1,1.4-0.2v0h32.2h0l0,16.8h0
		h-11.3h-20.8v0c-0.5,0-1-0.1-1.4-0.2c-3.8-0.8-6.7-4.2-6.7-8.2S622.1,350.2,626,349.4z"/>
</g>
</svg>
